<svg width="16" height="16" viewBox="0 0 16 16" fill="none" xmlns="http://www.w3.org/2000/svg">
<path d="M11.8669 6.10246L8.64687 4.17046C8.24841 3.93138 7.75231 3.93138 7.35385 4.17046L4.13385 6.10246C3.97159 6.2001 3.87251 6.37456 3.87251 6.5641V9.74462C3.87251 10.1826 4.10944 10.599 4.48277 10.8215L7.35456 12.5446C7.55559 12.6667 7.77815 12.7241 8.00072 12.7241C8.22328 12.7241 8.44585 12.6667 8.64687 12.5446L11.5187 10.8215C11.892 10.599 12.1289 10.1826 12.1289 9.74462V6.5641C12.1289 6.37456 12.0284 6.2001 11.8669 6.10246ZM7.90738 5.09374C7.96482 5.05928 8.03518 5.05928 8.09262 5.09374L10.543 6.5641L8.09262 8.03446C8.03518 8.06892 7.96482 8.06892 7.90738 8.03446L5.45703 6.5641L7.90738 5.09374ZM5.03487 9.90256C4.98462 9.86667 4.94872 9.80923 4.94872 9.74462V7.51538L7.35385 8.95846C7.38831 8.97928 7.42636 8.9879 7.46154 9.00441V11.3586L5.03487 9.90256ZM11.0513 9.74462C11.0513 9.80923 11.0154 9.86667 10.9651 9.90256L8.53846 11.3586V9.00441C8.57364 8.98718 8.61241 8.97856 8.64615 8.95846L11.0513 7.51538V9.74462ZM6.38462 1.53846C6.38462 1.83569 6.14338 2.07692 5.84615 2.07692H2.97436C2.47969 2.07692 2.07692 2.47969 2.07692 2.97436V5.84615C2.07692 6.14338 1.83569 6.38462 1.53846 6.38462C1.24123 6.38462 1 6.14338 1 5.84615V2.97436C1 1.88523 1.88523 1 2.97436 1H5.84615C6.14338 1 6.38462 1.24123 6.38462 1.53846ZM13.0256 1H10.1538C9.85662 1 9.61539 1.24123 9.61539 1.53846C9.61539 1.83569 9.85662 2.07692 10.1538 2.07692H13.0256C13.5203 2.07692 13.9231 2.47969 13.9231 2.97436V5.84615C13.9231 6.14338 14.1643 6.38462 14.4615 6.38462C14.7588 6.38462 15 6.14338 15 5.84615V2.97436C15 1.88523 14.1148 1 13.0256 1ZM14.4615 9.61539C14.1643 9.61539 13.9231 9.85662 13.9231 10.1538V13.0256C13.9231 13.5203 13.5203 13.9231 13.0256 13.9231H10.1538C9.85662 13.9231 9.61539 14.1643 9.61539 14.4615C9.61539 14.7588 9.85662 15 10.1538 15H13.0256C14.1148 15 15 14.1148 15 13.0256V10.1538C15 9.85662 14.7588 9.61539 14.4615 9.61539ZM5.84615 13.9231H2.97436C2.47969 13.9231 2.07692 13.5203 2.07692 13.0256V10.1538C2.07692 9.85662 1.83569 9.61539 1.53846 9.61539C1.24123 9.61539 1 9.85662 1 10.1538V13.0256C1 14.1148 1.88523 15 2.97436 15H5.84615C6.14338 15 6.38462 14.7588 6.38462 14.4615C6.38462 14.1643 6.14338 13.9231 5.84615 13.9231Z" fill="#131313"/>
</svg>
